<svg width="442" height="374" viewBox="0 0 442 374" fill="none" xmlns="http://www.w3.org/2000/svg">
<g clip-path="url(#clip0)">
<path d="M284.66 224.903H165.529C162.336 224.9 159.275 223.629 157.018 221.371C154.76 219.113 153.49 216.051 153.487 212.857V55.067C153.49 51.8733 154.76 48.8115 157.018 46.5532C159.275 44.2949 162.336 43.0247 165.529 43.021H284.66C287.852 43.0246 290.913 44.2949 293.171 46.5532C295.428 48.8115 296.698 51.8733 296.702 55.067V212.857C296.698 216.051 295.428 219.113 293.171 221.371C290.913 223.629 287.852 224.9 284.66 224.903V224.903Z" fill="#E6E6E6"/>
<path d="M276.286 214.864H173.903C171.068 214.86 168.35 213.733 166.346 211.727C164.341 209.722 163.214 207.004 163.211 204.168V63.7561C163.214 60.9205 164.341 58.202 166.346 56.1969C168.35 54.1918 171.068 53.0639 173.903 53.0607H276.286C279.12 53.0639 281.838 54.1918 283.843 56.1969C285.847 58.2019 286.975 60.9205 286.978 63.7561V204.168C286.975 207.004 285.847 209.722 283.843 211.727C281.838 213.733 279.12 214.86 276.286 214.864V214.864Z" fill="white"/>
<path d="M266.072 79.7446H184.116C183.765 79.7451 183.417 79.6763 183.092 79.5421C182.767 79.408 182.472 79.2112 182.224 78.9628C181.975 78.7145 181.778 78.4196 181.643 78.095C181.509 77.7703 181.44 77.4223 181.44 77.0709C181.44 76.7195 181.509 76.3715 181.643 76.0469C181.778 75.7222 181.975 75.4273 182.224 75.179C182.472 74.9307 182.767 74.7338 183.092 74.5997C183.417 74.4655 183.765 74.3967 184.116 74.3972H266.072C266.424 74.3967 266.772 74.4655 267.096 74.5997C267.421 74.7338 267.716 74.9307 267.965 75.179C268.213 75.4273 268.411 75.7222 268.545 76.0469C268.68 76.3715 268.749 76.7195 268.749 77.0709C268.749 77.4223 268.68 77.7703 268.545 78.095C268.411 78.4196 268.213 78.7145 267.965 78.9628C267.716 79.2112 267.421 79.408 267.096 79.5421C266.772 79.6763 266.424 79.7451 266.072 79.7446V79.7446Z" fill="#E4E4E4"/>
<path d="M266.072 90.3095H184.116C183.407 90.3095 182.727 90.0279 182.226 89.5264C181.725 89.025 181.443 88.3449 181.443 87.6357C181.443 86.9266 181.725 86.2465 182.226 85.7451C182.727 85.2437 183.407 84.962 184.116 84.962H266.072C266.781 84.962 267.461 85.2437 267.962 85.7451C268.464 86.2465 268.745 86.9266 268.745 87.6357C268.745 88.3449 268.464 89.025 267.962 89.5264C267.461 90.0279 266.781 90.3095 266.072 90.3095Z" fill="#E4E4E4"/>
<path d="M219.642 100.875H184.116C183.407 100.875 182.727 100.593 182.226 100.091C181.725 99.59 181.443 98.9099 181.443 98.2007C181.443 97.4916 181.725 96.8115 182.226 96.3101C182.727 95.8087 183.407 95.5269 184.116 95.5269H219.642C220.351 95.5269 221.031 95.8087 221.532 96.3101C222.034 96.8115 222.315 97.4916 222.315 98.2007C222.315 98.9099 222.034 99.59 221.532 100.091C221.031 100.593 220.351 100.875 219.642 100.875Z" fill="#E4E4E4"/>
<path d="M266.072 123.002H184.116C183.765 123.002 183.417 122.933 183.092 122.799C182.767 122.665 182.472 122.468 182.224 122.22C181.975 121.971 181.778 121.677 181.643 121.352C181.509 121.027 181.44 120.679 181.44 120.328C181.44 119.976 181.509 119.628 181.643 119.304C181.778 118.979 181.975 118.684 182.224 118.436C182.472 118.188 182.767 117.991 183.092 117.857C183.417 117.722 183.765 117.654 184.116 117.654H266.072C266.424 117.654 266.772 117.722 267.096 117.857C267.421 117.991 267.716 118.188 267.965 118.436C268.213 118.684 268.411 118.979 268.545 119.304C268.68 119.628 268.749 119.976 268.749 120.328C268.749 120.679 268.68 121.027 268.545 121.352C268.411 121.677 268.213 121.971 267.965 122.22C267.716 122.468 267.421 122.665 267.096 122.799C266.772 122.933 266.424 123.002 266.072 123.002V123.002Z" fill="#E4E4E4"/>
<path d="M266.072 133.567H184.116C183.407 133.567 182.727 133.285 182.226 132.783C181.725 132.282 181.443 131.602 181.443 130.893C181.443 130.184 181.725 129.504 182.226 129.002C182.727 128.501 183.407 128.219 184.116 128.219H266.072C266.781 128.219 267.461 128.501 267.962 129.002C268.464 129.504 268.745 130.184 268.745 130.893C268.745 131.602 268.464 132.282 267.962 132.783C267.461 133.285 266.781 133.567 266.072 133.567Z" fill="#E4E4E4"/>
<path d="M219.642 144.132H184.116C183.408 144.13 182.729 143.848 182.229 143.347C181.728 142.846 181.447 142.166 181.447 141.458C181.447 140.749 181.728 140.07 182.229 139.568C182.729 139.067 183.408 138.785 184.116 138.784H219.642C220.351 138.784 221.031 139.066 221.532 139.567C222.034 140.068 222.315 140.749 222.315 141.458C222.315 142.167 222.034 142.847 221.532 143.348C221.031 143.85 220.351 144.132 219.642 144.132Z" fill="#E4E4E4"/>
<path d="M266.072 166.259H184.116C183.765 166.259 183.417 166.19 183.092 166.056C182.767 165.922 182.472 165.725 182.224 165.477C181.975 165.228 181.778 164.934 181.643 164.609C181.509 164.284 181.44 163.936 181.44 163.585C181.44 163.233 181.509 162.885 181.643 162.561C181.778 162.236 181.975 161.941 182.224 161.693C182.472 161.445 182.767 161.248 183.092 161.114C183.417 160.98 183.765 160.911 184.116 160.911H266.072C266.424 160.911 266.772 160.98 267.096 161.114C267.421 161.248 267.716 161.445 267.965 161.693C268.213 161.941 268.411 162.236 268.545 162.561C268.68 162.885 268.749 163.233 268.749 163.585C268.749 163.936 268.68 164.284 268.545 164.609C268.411 164.934 268.213 165.228 267.965 165.477C267.716 165.725 267.421 165.922 267.096 166.056C266.772 166.19 266.424 166.259 266.072 166.259V166.259Z" fill="#E4E4E4"/>
<path d="M266.072 176.824H184.116C183.407 176.824 182.727 176.542 182.226 176.04C181.725 175.539 181.443 174.859 181.443 174.15C181.443 173.441 181.725 172.761 182.226 172.259C182.727 171.758 183.407 171.476 184.116 171.476H266.072C266.781 171.476 267.461 171.758 267.962 172.259C268.464 172.761 268.745 173.441 268.745 174.15C268.745 174.859 268.464 175.539 267.962 176.04C267.461 176.542 266.781 176.824 266.072 176.824V176.824Z" fill="#E4E4E4"/>
<path d="M219.642 187.389H184.116C183.407 187.389 182.727 187.107 182.226 186.605C181.725 186.104 181.443 185.424 181.443 184.715C181.443 184.006 181.725 183.326 182.226 182.824C182.727 182.323 183.407 182.041 184.116 182.041H219.642C220.351 182.041 221.031 182.323 221.532 182.824C222.034 183.326 222.315 184.006 222.315 184.715C222.315 185.424 222.034 186.104 221.532 186.605C221.031 187.107 220.351 187.389 219.642 187.389Z" fill="#E4E4E4"/>
<path d="M201.487 133.171L112.447 56.9875H52.6271V55.8652H112.861L202.217 132.318L201.487 133.171Z" fill="#2F2E41"/>
<path d="M52.6269 65.4051C57.5842 65.4051 61.6029 61.3852 61.6029 56.4264C61.6029 51.4677 57.5842 47.4478 52.6269 47.4478C47.6697 47.4478 43.651 51.4677 43.651 56.4264C43.651 61.3852 47.6697 65.4051 52.6269 65.4051Z" fill="#00A19D"/>
<path d="M84.629 86.627H2.67298C2.32198 86.627 1.97441 86.5579 1.65013 86.4235C1.32584 86.2891 1.03118 86.0922 0.782985 85.8439C0.534787 85.5956 0.337908 85.3009 0.203584 84.9765C0.0692604 84.6521 0.00012207 84.3044 0.00012207 83.9533C0.00012207 83.6022 0.0692604 83.2546 0.203584 82.9302C0.337908 82.6058 0.534787 82.3111 0.782985 82.0628C1.03118 81.8145 1.32584 81.6176 1.65013 81.4832C1.97441 81.3488 2.32198 81.2797 2.67298 81.2797H84.629C84.98 81.2797 85.3275 81.3488 85.6518 81.4832C85.9761 81.6176 86.2708 81.8145 86.519 82.0628C86.7672 82.3111 86.964 82.6058 87.0984 82.9302C87.2327 83.2546 87.3018 83.6022 87.3018 83.9533C87.3018 84.3044 87.2327 84.6521 87.0984 84.9765C86.964 85.3009 86.7672 85.5956 86.519 85.8439C86.2708 86.0922 85.9761 86.2891 85.6518 86.4235C85.3275 86.5579 84.98 86.627 84.629 86.627Z" fill="#00A19D"/>
<path d="M84.629 97.192H2.67299C1.96407 97.192 1.28418 96.9103 0.782896 96.4089C0.281613 95.9074 0 95.2273 0 94.5182C0 93.8091 0.281613 93.129 0.782896 92.6275C1.28418 92.1261 1.96407 91.8444 2.67299 91.8444H84.629C85.3379 91.8444 86.0178 92.1261 86.519 92.6275C87.0203 93.129 87.3019 93.8091 87.3019 94.5182C87.3019 95.2273 87.0203 95.9074 86.519 96.4089C86.0178 96.9103 85.3379 97.192 84.629 97.192V97.192Z" fill="#00A19D"/>
<path d="M38.1989 107.757H2.67299C1.96407 107.757 1.28418 107.475 0.782896 106.974C0.281613 106.472 0 105.792 0 105.083C0 104.374 0.281613 103.694 0.782896 103.193C1.28418 102.691 1.96407 102.409 2.67299 102.409H38.1989C38.9079 102.409 39.5877 102.691 40.089 103.193C40.5903 103.694 40.8719 104.374 40.8719 105.083C40.8719 105.792 40.5903 106.472 40.089 106.974C39.5877 107.475 38.9079 107.757 38.1989 107.757Z" fill="#00A19D"/>
<path d="M225.094 84.8705L314.45 8.4173H374.684V9.53954H314.864L225.823 85.7233L225.094 84.8705Z" fill="#2F2E41"/>
<path d="M374.684 17.9573C379.641 17.9573 383.66 13.9374 383.66 8.97867C383.66 4.01989 379.641 0 374.684 0C369.727 0 365.708 4.01989 365.708 8.97867C365.708 13.9374 369.727 17.9573 374.684 17.9573Z" fill="#00A19D"/>
<path d="M435.715 38.8644H353.759C353.408 38.8649 353.06 38.7961 352.735 38.662C352.41 38.5279 352.115 38.331 351.867 38.0827C351.618 37.8344 351.421 37.5394 351.286 37.2148C351.152 36.8902 351.083 36.5422 351.083 36.1908C351.083 35.8393 351.152 35.4913 351.286 35.1667C351.421 34.8421 351.618 34.5472 351.867 34.2989C352.115 34.0505 352.41 33.8537 352.735 33.7195C353.06 33.5854 353.408 33.5166 353.759 33.5171H435.715C436.067 33.5166 436.415 33.5854 436.739 33.7195C437.064 33.8537 437.359 34.0505 437.608 34.2989C437.856 34.5472 438.053 34.8421 438.188 35.1667C438.323 35.4913 438.392 35.8393 438.392 36.1908C438.392 36.5422 438.323 36.8902 438.188 37.2148C438.053 37.5394 437.856 37.8344 437.608 38.0827C437.359 38.331 437.064 38.5279 436.739 38.662C436.415 38.7961 436.067 38.8649 435.715 38.8644V38.8644Z" fill="#00A19D"/>
<path d="M435.715 49.4294H353.759C353.05 49.4294 352.37 49.1477 351.869 48.6463C351.368 48.1448 351.086 47.4648 351.086 46.7556C351.086 46.0465 351.368 45.3664 351.869 44.865C352.37 44.3635 353.05 44.0818 353.759 44.0818H435.715C436.066 44.0818 436.414 44.151 436.738 44.2853C437.062 44.4197 437.357 44.6167 437.605 44.865C437.854 45.1132 438.05 45.408 438.185 45.7324C438.319 46.0568 438.388 46.4045 438.388 46.7556C438.388 47.1067 438.319 47.4544 438.185 47.7788C438.05 48.1032 437.854 48.398 437.605 48.6463C437.357 48.8946 437.062 49.0915 436.738 49.2259C436.414 49.3603 436.066 49.4294 435.715 49.4294Z" fill="#00A19D"/>
<path d="M389.285 59.9944H353.759C353.05 59.9944 352.37 59.7127 351.869 59.2113C351.368 58.7098 351.086 58.0297 351.086 57.3206C351.086 56.6115 351.368 55.9314 351.869 55.4299C352.37 54.9285 353.05 54.6468 353.759 54.6468H389.285C389.994 54.6468 390.674 54.9285 391.175 55.4299C391.677 55.9314 391.958 56.6115 391.958 57.3206C391.958 58.0297 391.677 58.7098 391.175 59.2113C390.674 59.7127 389.994 59.9944 389.285 59.9944V59.9944Z" fill="#00A19D"/>
<path d="M371.462 253.554C371 253.051 370.653 252.453 370.447 251.802C370.242 251.151 370.181 250.463 370.27 249.786C370.358 249.109 370.595 248.459 370.961 247.883C371.328 247.307 371.817 246.819 372.393 246.452L368.566 230.3L376.666 233.26L379.058 248.145C379.61 249.153 379.772 250.329 379.515 251.45C379.257 252.571 378.598 253.558 377.662 254.225C376.725 254.891 375.577 255.191 374.434 255.068C373.292 254.944 372.234 254.406 371.462 253.554V253.554Z" fill="#9E616A"/>
<path d="M351.983 185.867L355.234 194.228C355.234 194.228 353.841 202.59 356.163 204.448C358.485 206.306 357.556 206.306 357.556 207.7C357.636 208.699 357.925 209.671 358.405 210.551C358.885 211.432 359.545 212.201 360.342 212.81C362.2 214.203 370.559 242.539 370.559 242.539H378.918C378.648 240.38 378.648 238.195 378.918 236.036C379.382 232.784 377.525 224.423 376.596 223.029C375.667 221.636 376.596 219.778 376.596 216.99C376.596 214.203 374.738 212.81 374.738 208.164C374.738 203.519 369.166 167.286 369.63 163.105C370.094 158.924 364.986 155.208 364.986 155.208H360.342L351.983 185.867Z" fill="#E6E7E8"/>
<path d="M332.315 203.602L324.589 238.093L374.099 235.012L360.637 201.138L332.315 203.602Z" fill="#9E616A"/>
<path d="M440.237 333.233C438.763 338.563 436.462 343.629 433.417 348.245C426.614 358.535 416.878 366.404 406.176 372.702C405.435 373.144 404.683 373.575 403.93 374H396.424L396.162 373.4V373.395L395.857 372.702L395.819 372.62L395.802 372.702L395.503 374H391.818C391.512 373.569 391.212 373.138 390.918 372.702C390.487 372.064 390.073 371.421 389.681 370.766C388.988 369.622 388.369 368.434 387.827 367.211C387.762 367.075 387.707 366.938 387.653 366.802L387.898 366.535L386.879 362.074L388.928 361.736L386.682 354.805C386.764 354.549 386.857 354.293 386.955 354.036C388.214 350.846 390.58 348.463 393.388 346.462C396.277 344.395 399.64 342.738 402.731 341.015C404.181 340.202 405.61 339.346 407 338.441V338.435C408.777 337.285 410.501 336.054 412.173 334.744C412.202 334.725 412.229 334.705 412.255 334.684C412.278 334.667 412.3 334.649 412.32 334.629C419.815 328.772 426.157 321.574 431.024 313.4C431.025 313.4 431.025 313.4 431.026 313.4C431.027 313.4 431.027 313.399 431.028 313.399C431.028 313.398 431.029 313.398 431.029 313.397C431.029 313.396 431.029 313.396 431.029 313.395C431.193 313.133 431.345 312.872 431.498 312.604V312.599C433.491 309.17 435.207 305.587 436.628 301.884V301.878C436.737 301.606 436.835 301.333 436.939 301.06C437.08 301.3 437.217 301.54 437.347 301.78C437.348 301.78 437.349 301.78 437.35 301.78C437.35 301.781 437.351 301.781 437.351 301.782C437.352 301.782 437.352 301.783 437.353 301.783C437.353 301.784 437.353 301.785 437.353 301.785C442.641 311.246 443.142 322.643 440.237 333.233Z" fill="#F0F0F0"/>
<path d="M437.353 301.786C437.406 306.835 436.881 311.873 435.788 316.803C435.297 319.059 434.686 321.287 433.957 323.478C432.541 327.763 430.691 331.893 428.434 335.802C428.309 336.014 428.189 336.221 428.058 336.429V336.434C427.094 338.06 426.048 339.636 424.924 341.156C423.223 343.578 421.121 345.691 418.709 347.406C416.739 348.708 414.512 349.569 412.178 349.93C411.742 350.012 411.295 350.072 410.843 350.127C409.038 350.339 407.174 350.421 405.386 350.803C404.48 350.982 403.599 351.265 402.758 351.648C399.88 352.984 398.261 355.781 397.552 358.77C397.427 359.293 397.329 359.822 397.253 360.351C396.658 364.414 397.313 368.634 396.975 372.702C396.936 373.133 396.887 373.569 396.827 374H396.424L396.162 373.4V373.395C396.189 373.166 396.211 372.937 396.233 372.702C396.364 370.704 396.38 368.699 396.282 366.698C396.26 365.799 396.244 364.893 396.255 363.988C396.266 363.263 396.293 362.538 396.348 361.818V361.812C396.386 361.365 396.429 360.924 396.489 360.482C396.662 359.129 396.995 357.802 397.481 356.528C397.956 355.216 398.702 354.018 399.672 353.015C400.641 352.011 401.812 351.224 403.107 350.705C403.898 350.408 404.714 350.18 405.544 350.023C407.37 349.674 409.256 349.587 411.094 349.358C411.29 349.336 411.486 349.309 411.677 349.276C411.922 349.238 412.162 349.194 412.402 349.151C414.806 348.724 417.076 347.74 419.031 346.277C421.354 344.437 423.374 342.244 425.016 339.777C425.91 338.495 426.761 337.187 427.551 335.84C427.551 335.839 427.551 335.838 427.552 335.838C427.552 335.837 427.552 335.836 427.553 335.836C427.553 335.835 427.554 335.835 427.555 335.835C427.555 335.834 427.556 335.834 427.557 335.834C427.595 335.769 427.633 335.709 427.671 335.643L427.677 335.632C431.067 329.837 433.542 323.551 435.014 316.999C435.063 316.76 435.118 316.52 435.172 316.28C436.184 311.549 436.672 306.721 436.628 301.884V301.878C436.628 301.649 436.622 301.426 436.617 301.197C436.606 300.728 437.331 300.624 437.342 301.093C437.347 301.322 437.353 301.551 437.347 301.78C437.348 301.78 437.349 301.78 437.35 301.78C437.35 301.781 437.351 301.781 437.351 301.782C437.352 301.782 437.352 301.783 437.352 301.783C437.353 301.784 437.353 301.785 437.353 301.786V301.786Z" fill="white"/>
<path d="M427.747 336.281C429.824 337.336 432.209 337.619 434.475 337.078C436.741 336.537 438.742 335.208 440.119 333.328C440.396 332.946 439.816 332.497 439.539 332.879C438.26 334.632 436.397 335.87 434.285 336.369C432.174 336.869 429.954 336.597 428.025 335.603C427.606 335.387 427.33 336.066 427.747 336.281V336.281Z" fill="white"/>
<path d="M412.472 349.368C410.954 344.852 411.193 339.93 413.142 335.583C413.336 335.152 412.657 334.875 412.464 335.305C410.445 339.832 410.206 344.955 411.796 349.651C411.948 350.098 412.623 349.813 412.472 349.368V349.368Z" fill="white"/>
<path d="M435.383 316.347C434.494 316.106 433.679 315.648 433.011 315.014C432.343 314.38 431.842 313.59 431.555 312.715C431.409 312.266 430.734 312.552 430.879 312.998C431.201 313.963 431.755 314.835 432.491 315.537C433.228 316.239 434.125 316.75 435.105 317.025C435.195 317.058 435.295 317.056 435.383 317.019C435.472 316.982 435.544 316.913 435.583 316.825C435.619 316.735 435.619 316.634 435.581 316.544C435.544 316.455 435.472 316.384 435.383 316.347H435.383Z" fill="white"/>
<path d="M407 338.435V338.441C406.83 342.335 406.344 346.208 405.544 350.023V350.028C405.5 350.29 405.44 350.547 405.386 350.803C404.07 356.702 402.226 362.471 399.875 368.04C399.226 369.61 398.546 371.164 397.836 372.702C397.64 373.138 397.438 373.569 397.231 374H396.424L396.162 373.4V373.395L395.857 372.702L395.819 372.62L395.802 372.702L395.503 374H387.707L386.192 372.702L383.984 370.81L387.069 367.44L387.576 366.884L387.653 366.802L387.898 366.535L386.879 362.074L388.928 361.736L386.682 354.805L385.619 351.528L385.352 350.705L383.798 345.911L379.11 346.789L378.347 344.117C379.752 340.859 380.922 337.504 381.847 334.078C381.852 334.051 381.863 334.029 381.869 334.002C384.346 324.774 385.089 315.167 384.06 305.668V305.663C384.027 305.357 383.989 305.046 383.946 304.747V304.736C383.478 300.799 382.691 296.907 381.591 293.099C381.514 292.81 381.427 292.526 381.345 292.243C381.596 292.352 381.841 292.455 382.092 292.564L382.098 292.57H382.109C382.506 292.744 382.904 292.93 383.291 293.126C392.591 297.647 399.433 306.132 403.32 315.914C403.331 315.942 403.342 315.963 403.353 315.991C405.381 321.119 406.589 326.535 406.934 332.039C407.065 334.169 407.087 336.304 407 338.435V338.435Z" fill="#F0F0F0"/>
<path d="M392.853 374H391.992C391.719 373.558 391.425 373.128 391.131 372.702C390.662 372.042 390.178 371.397 389.681 370.766C389.25 370.221 388.819 369.681 388.389 369.141C387.942 368.58 387.5 368.018 387.069 367.44L387.576 366.884C387.658 366.993 387.74 367.102 387.827 367.211C389.223 369.049 390.733 370.815 392.025 372.702C392.314 373.128 392.592 373.558 392.853 374Z" fill="white"/>
<path d="M381.164 292.547C381.306 292.727 381.453 292.913 381.59 293.098C382.653 294.478 383.658 295.901 384.604 297.368C386.29 299.956 387.788 302.662 389.085 305.466C389.189 305.684 389.293 305.907 389.391 306.131C392.167 312.257 393.976 318.776 394.755 325.456C394.766 325.522 394.771 325.582 394.777 325.647C394.956 327.207 395.073 328.772 395.126 330.342C395.299 333.3 395.007 336.266 394.259 339.133C394.15 339.509 394.03 339.88 393.899 340.24C393.571 341.122 393.16 341.971 392.672 342.775C392.322 343.362 391.932 343.925 391.506 344.46C391.25 344.787 390.982 345.109 390.699 345.42C390.535 345.6 390.366 345.78 390.197 345.96C390.056 346.096 389.919 346.238 389.778 346.374C388.306 347.803 386.681 349.128 385.351 350.704L385.618 351.527C386.899 349.902 388.551 348.555 390.039 347.138C390.974 346.259 391.824 345.295 392.58 344.259C392.678 344.117 392.781 343.975 392.874 343.828C393.379 343.09 393.815 342.306 394.177 341.488C394.362 341.079 394.531 340.659 394.684 340.223C395.575 337.404 395.98 334.454 395.883 331.498C395.866 329.605 395.753 327.714 395.545 325.833C395.523 325.587 395.496 325.347 395.463 325.102C394.911 320.623 393.902 316.212 392.454 311.938C390.621 306.516 388.101 301.352 384.953 296.572C384.054 295.203 383.1 293.867 382.091 292.564C381.96 292.384 381.824 292.209 381.682 292.029C381.393 291.659 380.876 292.177 381.164 292.547Z" fill="white"/>
<path d="M395.204 325.902C397.498 325.493 399.572 324.283 401.056 322.486C402.539 320.689 403.336 318.423 403.304 316.093C403.302 315.998 403.263 315.907 403.196 315.84C403.128 315.774 403.037 315.736 402.942 315.734C402.847 315.733 402.755 315.769 402.686 315.834C402.617 315.899 402.576 315.989 402.572 316.084C402.605 318.254 401.863 320.365 400.478 322.035C399.092 323.705 397.156 324.825 395.018 325.193C394.553 325.273 394.742 325.982 395.204 325.902V325.902Z" fill="white"/>
<path d="M390.885 345.55C386.955 342.859 384.183 338.785 383.123 334.14C383.018 333.68 382.31 333.867 382.414 334.326C383.527 339.158 386.419 343.392 390.515 346.183C390.906 346.449 391.273 345.815 390.885 345.55V345.55Z" fill="white"/>
<path d="M389.303 305.387C388.448 305.73 387.522 305.855 386.607 305.751C385.692 305.648 384.817 305.318 384.06 304.793C383.673 304.522 383.306 305.157 383.691 305.426C384.529 306.002 385.496 306.365 386.507 306.482C387.517 306.598 388.541 306.466 389.489 306.095C389.581 306.068 389.659 306.006 389.708 305.923C389.756 305.84 389.772 305.742 389.75 305.648C389.725 305.554 389.664 305.474 389.58 305.425C389.496 305.376 389.397 305.362 389.303 305.387V305.387Z" fill="white"/>
<path d="M340.56 362.788H334.998L332.352 341.329L340.56 341.329L340.56 362.788Z" fill="#9E616A"/>
<path d="M343.552 373.351H339.605L338.901 369.624L337.097 373.351H326.63C326.128 373.351 325.639 373.191 325.235 372.893C324.831 372.596 324.533 372.177 324.383 371.698C324.234 371.219 324.242 370.704 324.405 370.23C324.569 369.756 324.88 369.346 325.293 369.061L333.651 363.286V359.518L342.443 360.043L343.552 373.351Z" fill="#2F2E41"/>
<path d="M393.125 360.02L387.689 361.199L380.555 340.79L388.578 339.049L393.125 360.02Z" fill="#9E616A"/>
<path d="M398.287 369.709L394.431 370.546L392.952 367.053L391.979 371.078L381.75 373.297C381.26 373.404 380.748 373.351 380.29 373.146C379.832 372.941 379.452 372.595 379.204 372.158C378.957 371.722 378.855 371.217 378.915 370.719C378.974 370.221 379.191 369.754 379.534 369.388L386.479 361.972L385.68 358.29L394.383 356.938L398.287 369.709Z" fill="#2F2E41"/>
<path d="M432.294 373.351C432.294 373.436 432.278 373.521 432.245 373.6C432.213 373.679 432.165 373.75 432.105 373.811C432.044 373.871 431.973 373.919 431.894 373.951C431.815 373.984 431.731 374 431.645 374H278.848C278.676 374 278.511 373.932 278.39 373.81C278.268 373.688 278.2 373.523 278.2 373.351C278.2 373.179 278.268 373.014 278.39 372.892C278.511 372.771 278.676 372.702 278.848 372.702H431.645C431.731 372.702 431.815 372.719 431.894 372.751C431.973 372.784 432.044 372.831 432.105 372.892C432.165 372.952 432.213 373.024 432.245 373.102C432.278 373.181 432.294 373.266 432.294 373.351Z" fill="#CCCCCC"/>
<path d="M323.325 266.934C327.228 288.391 328.204 297.656 328.204 297.656C328.204 297.656 325.276 301.07 327.228 303.022C329.179 304.974 327.228 308.873 327.228 308.873L331.616 356.178L335.149 355.605L343.658 354.237L346.727 353.74L344.776 309.364C344.776 309.364 346.727 305.459 345.752 304.483C344.776 303.507 346.727 297.656 346.727 297.656L349.164 251.327L364.281 302.046C364.281 302.046 362.814 303.998 364.281 305.459C365.742 306.921 368.664 314.239 368.664 314.239L377.653 345.703L378.416 348.375L383.104 347.497L388.207 346.537L389.145 346.362L390.813 346.046L391.887 345.844L392.252 345.779L394.018 345.446L393.484 343.074L393.206 341.826L385.601 308.039L385.427 307.259L385.241 306.435C385.241 306.435 386.217 303.998 384.756 302.531C384.329 302.084 384.017 301.54 383.847 300.945C383.677 300.35 383.654 299.723 383.78 299.117C383.828 299.066 383.872 299.012 383.911 298.954C384.084 298.717 384.203 298.445 384.26 298.158C384.391 297.547 384.276 296.691 383.29 295.704C383.012 295.408 382.779 295.074 382.597 294.711C381.115 291.903 380.368 285.954 380.368 285.954C380.368 285.954 379.049 238.834 374.731 231.636C374.502 231.26 369.919 224.036 369.679 223.889C364.805 220.966 324.589 225.003 324.589 225.003C324.589 225.003 322.289 231.183 322.185 231.827C321.624 235.442 320.016 248.731 323.325 266.934Z" fill="#2F2E41"/>
<path d="M323.553 253.494C324.015 252.991 324.361 252.393 324.567 251.742C324.773 251.091 324.834 250.402 324.745 249.725C324.656 249.048 324.42 248.399 324.054 247.823C323.687 247.247 323.198 246.758 322.622 246.392L326.449 230.239L318.349 233.2L315.957 248.084C315.405 249.093 315.243 250.269 315.5 251.39C315.757 252.51 316.417 253.497 317.353 254.164C318.289 254.831 319.438 255.131 320.581 255.007C321.723 254.884 322.781 254.345 323.553 253.494V253.494Z" fill="#9E616A"/>
<path d="M330.029 155.148C330.029 155.148 334.04 149.169 341.935 141.272C346.114 139.878 353.356 140.691 355.866 141.272C367.476 156.602 368.207 155.583 371.229 164.148C372.013 166.369 372.404 168.503 372.056 170.245C370.663 177.213 372.896 212.419 373.361 214.277C373.825 216.135 377.076 218.458 373.825 218.458C370.574 218.458 321.349 216.6 322.278 215.206C323.207 213.813 330.029 155.148 330.029 155.148Z" fill="#E6E7E8"/>
<path d="M334.673 155.148H330.029C330.029 155.148 324.921 158.864 325.385 163.045C325.849 167.225 320.277 203.459 320.277 208.104C320.277 212.749 318.419 214.143 318.419 216.93C318.419 219.717 319.348 221.575 318.419 222.969C317.49 224.363 315.633 232.724 316.097 235.976C316.367 238.135 316.367 240.32 316.097 242.479H324.456C324.456 242.479 332.815 214.143 334.673 212.749C335.47 212.141 336.13 211.371 336.61 210.491C337.09 209.611 337.379 208.639 337.459 207.64C337.459 206.246 336.53 206.246 338.852 204.388C341.174 202.53 339.781 194.168 339.781 194.168L343.032 185.807L334.673 155.148Z" fill="#E6E7E8"/>
<path d="M344.211 135.326C351.638 135.326 357.658 129.304 357.658 121.875C357.658 114.446 351.638 108.424 344.211 108.424C336.785 108.424 330.764 114.446 330.764 121.875C330.764 129.304 336.785 135.326 344.211 135.326Z" fill="#9E616A"/>
<path d="M334.793 147.083L333.531 141.553C333.116 139.702 333.076 137.787 333.413 135.92C333.75 134.054 334.456 132.274 335.492 130.685C336.443 129.186 336.973 127.46 337.026 125.686C337.08 123.912 336.655 122.156 335.795 120.603C334.332 117.939 331.807 116.348 329.042 116.348H328.706V116.012C328.706 111.189 332.464 107.785 335.958 107.59C336.084 106.586 336.795 105.686 338.034 104.972C340.992 103.266 346.711 102.896 351.033 105.17C351.113 104.434 351.39 103.735 351.835 103.144C352.28 102.554 352.877 102.095 353.562 101.817C354.272 101.57 355.037 101.526 355.77 101.69C355.833 100.48 356.332 99.335 357.175 98.466C358.368 97.3094 360.282 96.8699 362.427 97.2576C365.372 97.7922 368.275 99.6691 370.601 102.543C372.663 105.091 374.095 108.094 375.48 110.998C376.841 113.853 378.249 116.806 380.29 119.307C382.525 122.046 385.295 123.821 388.09 124.304C391.349 124.868 394.693 123.526 396.224 121.041L396.528 120.548L396.805 121.057C398.524 124.218 397.821 128.561 395.132 131.384C392.72 133.915 388.936 135.205 385.012 134.83C381.69 134.515 378.339 133.102 375.052 130.633C371.788 128.181 369.769 125.471 369.052 122.577C368.851 121.681 368.707 120.774 368.621 119.861C368.398 117.947 368.189 116.139 367.012 114.809C365.954 113.613 364.317 113.095 362.866 112.703L362.581 112.626C362.529 113.165 362.36 113.687 362.086 114.154C361.812 114.62 361.44 115.022 360.995 115.33C360.727 115.491 360.434 115.604 360.128 115.664C361.811 122.439 361.119 127.626 358.07 131.084C352.923 136.922 343.032 135.721 342.614 135.668L342.335 135.632L342.321 135.351C342.284 134.599 342.192 133.85 342.046 133.11C340.63 136.525 335.864 145.553 335.227 146.463L334.793 147.083Z" fill="#2F2E41"/>
</g>
<defs>
<clipPath id="clip0">
<rect width="442" height="374" fill="white"/>
</clipPath>
</defs>
</svg>
